<svg xmlns="http://www.w3.org/2000/svg" xmlns:xlink="http://www.w3.org/1999/xlink" viewBox="0 0 93.24 178"><defs><style>.cls-1,.cls-2{stroke:#000;stroke-miterlimit:10;}.cls-2{stroke-width:2px;}</style><symbol id="hd2" data-name="hd2" viewBox="0 0 35.96 50.99"><path class="cls-1" d="M17,22.5a22.8,22.8,0,0,1,17,8.07V30.5C34,19.18,26.59,10,17.48,10,8.65,10,1.46,18.63,1,29.47A22.47,22.47,0,0,1,17,22.5Z"/><circle class="cls-1" cx="17.48" cy="7.5" r="7"/><path class="cls-2" d="M1.1,31.43C.11,20.42,6.88,10.8,16.19,10S33.87,17.48,34.86,28.5,29.08,49.13,19.77,49.94,2.08,42.45,1.1,31.43Zm3.65-.31c.81,9.05,7.41,15.9,14.7,15.27S32,37.87,31.21,28.82,23.8,12.91,16.51,13.54,3.93,22.06,4.75,31.12Z"/></symbol></defs><g id="图层_2" data-name="图层 2"><g id="树式"><use width="35.96" height="50.99" transform="translate(27.6)" xlink:href="#hd2"/><rect x="43.6" y="50" width="6" height="128" transform="translate(93.19 228) rotate(180)"/><rect x="0.6" y="71" width="43" height="6"/><rect x="-0.25" y="63.44" width="48.7" height="6" transform="translate(-19.14 10.54) rotate(-17.79)"/><rect x="49.6" y="71" width="43" height="6" transform="translate(142.19 148) rotate(-180)"/><rect x="44.74" y="63.44" width="48.7" height="6" transform="translate(114.58 150.81) rotate(-162.21)"/><rect x="48.6" y="106" width="43" height="6" transform="translate(123.83 226.93) rotate(-171.75)"/><rect x="44.44" y="114.56" width="48.7" height="6" transform="translate(160.13 218.61) rotate(168.22)"/></g></g></svg>