<svg xmlns="http://www.w3.org/2000/svg" xmlns:xlink="http://www.w3.org/1999/xlink" viewBox="0 0 154.85 173.37"><defs><style>.cls-1{stroke:#000;stroke-miterlimit:10;stroke-width:2px;}</style><symbol id="hd1" data-name="hd1" viewBox="0 0 35.26 51.73"><g id="head01"><path class="cls-1" d="M1.09,32.27c-1-11,5.67-20.53,14.79-21.33s17.32,7.45,18.29,18.4S28.5,49.87,19.39,50.67,2.06,43.22,1.09,32.27ZM4.67,32c.79,9,7.26,15.82,14.4,15.19s12.32-8.47,11.52-17.48-7.25-15.82-14.4-15.19S3.87,22.94,4.67,32Z"/><ellipse cx="22.47" cy="6.65" rx="6.28" ry="6.21" transform="translate(-0.5 2) rotate(-5.05)"/><path d="M15.76,7.24A6.73,6.73,0,0,1,29.17,6.06,6.73,6.73,0,0,1,15.76,7.24Zm.9-.08a5.83,5.83,0,0,0,11.62-1,5.83,5.83,0,0,0-11.62,1Z"/><path d="M22.2,27.31a32.7,32.7,0,0,0-19-5.23C6.39,15.56,11.92,11.42,17.77,12c8.36.82,14.21,10.93,13.07,22.58,0,0,0,0,0,.08A38.27,38.27,0,0,0,22.2,27.31Z"/><path d="M30.15,35.23a37.15,37.15,0,0,0-8.43-7.17l.48-.75-.48.75A31.91,31.91,0,0,0,3.27,23l-1.53.09L2.4,21.7c3.48-7.13,9.4-11.18,15.45-10.59C26.7,12,32.92,22.54,31.72,34.74l-.2,2.06ZM4.71,21.15a34.37,34.37,0,0,1,18,5.41,39.27,39.27,0,0,1,7.39,5.95c.31-10.29-5-18.91-12.39-19.63C12.77,12.39,7.9,15.54,4.71,21.15Z"/></g></symbol></defs><g id="图层_2" data-name="图层 2"><g id="战士一式"><use width="35.26" height="51.73" transform="matrix(-0.99, 0, 0, 1.01, 111.89, 27)" xlink:href="#hd1"/><rect x="91.35" y="77" width="6" height="51"/><rect x="91.84" y="124.95" width="53.5" height="6" transform="translate(11.74 -9.95) rotate(5.06)"/><rect x="139.35" y="128" width="6" height="45"/><rect x="-4.01" y="144.49" width="106.42" height="6" transform="translate(-59.34 36.16) rotate(-25.83)"/><rect x="91.35" width="5" height="82"/><rect x="139.85" y="168" width="15" height="5"/></g></g></svg>