<?xml version="1.0" encoding="utf-8"?>
<!-- Generator: Adobe Illustrator 24.3.0, SVG Export Plug-In . SVG Version: 6.00 Build 0)  -->
<svg version="1.1" xmlns="http://www.w3.org/2000/svg" xmlns:xlink="http://www.w3.org/1999/xlink" x="0px" y="0px"
	 viewBox="0 0 200 200" style="enable-background:new 0 0 200 200;" xml:space="preserve">
<style type="text/css">
	.st0{stroke:#000000;stroke-width:2;stroke-miterlimit:10;}
	.st1{stroke:#000000;stroke-miterlimit:10;}
</style>
<symbol  id="hd1" viewBox="-17.63 -25.86 35.26 51.73">
	<g id="head01_2_">
		<g>
			<g>
				<path class="st0" d="M-16.54-6.4c-0.97,10.96,5.66,20.52,14.78,21.33S15.57,7.48,16.54-3.48S10.87-24,1.75-24.81
					S-15.57-17.36-16.54-6.4z M-12.96-6.09c0.8-9.01,7.26-15.82,14.4-15.19C8.59-20.65,13.76-12.8,12.96-3.8S5.7,12.03-1.44,11.4
					C-8.59,10.77-13.76,2.92-12.96-6.09z"/>
			</g>
			<g>
				<ellipse transform="matrix(0.9961 -0.088 0.088 0.9961 -1.6714 0.4999)" cx="4.84" cy="19.21" rx="6.28" ry="6.21"/>
				<path d="M-1.87,18.62c-0.32,3.65,2.42,6.89,6.12,7.22s6.97-2.38,7.29-6.03s-2.42-6.89-6.12-7.22S-1.55,14.97-1.87,18.62z
					 M-0.97,18.7c0.28-3.17,3.11-5.51,6.32-5.23s5.58,3.09,5.3,6.25c-0.28,3.17-3.11,5.51-6.32,5.23
					C1.13,24.67-1.25,21.87-0.97,18.7z"/>
			</g>
			<g>
				<path d="M4.57-1.44c-6.26,3.9-12.96,5.58-18.99,5.22c3.18,6.53,8.7,10.66,14.56,10.09C8.5,13.05,14.35,2.94,13.21-8.71
					c0-0.03-0.01-0.05-0.01-0.08C10.78-6.02,7.89-3.51,4.57-1.44z"/>
				<path d="M12.52-9.37c-2.44,2.79-5.27,5.21-8.43,7.17l0.48,0.75L4.09-2.19c-5.85,3.64-12.4,5.45-18.46,5.09l-1.53-0.09l0.66,1.36
					c3.47,7.12,9.4,11.18,15.45,10.59C9.06,13.89,15.29,3.32,14.09-8.88l-0.21-2.06L12.52-9.37z M-12.92,4.71
					c5.98,0.01,12.3-1.88,17.97-5.41c2.7-1.68,5.19-3.68,7.4-5.96c0.3,10.3-5,18.91-12.39,19.64C-4.86,13.47-9.73,10.33-12.92,4.71z
					"/>
			</g>
		</g>
	</g>
</symbol>
<g id="图层_1">
	<rect x="6.85" y="75.87" class="st1" width="157.43" height="6"/>
	
		<use xlink:href="#hd1"  width="35.26" height="51.73" x="-17.63" y="-25.86" transform="matrix(-0.635 0.7725 0.7725 0.635 177.3682 70.1651)" style="overflow:visible;"/>
	<rect x="151.58" y="81.1" class="st1" width="6" height="55.9"/>
	<rect x="68.97" y="81.1" class="st1" width="6" height="55.9"/>
	<rect x="61.6" y="132.44" class="st1" width="11.41" height="4.56"/>
	<rect x="144.88" y="132.44" class="st1" width="11.41" height="4.56"/>
	
		<rect x="1.71" y="71.4" transform="matrix(-1.836970e-16 1 -1 -1.836970e-16 82.8134 64.5574)" class="st1" width="14.83" height="4.56"/>
</g>
<g id="图层_2">
</g>
</svg>
