<?xml version="1.0" encoding="utf-8"?>
<!-- Generator: Adobe Illustrator 24.3.0, SVG Export Plug-In . SVG Version: 6.00 Build 0)  -->
<svg version="1.1" xmlns="http://www.w3.org/2000/svg" xmlns:xlink="http://www.w3.org/1999/xlink" x="0px" y="0px"
	 viewBox="0 0 200 200" style="enable-background:new 0 0 200 200;" xml:space="preserve">
<style type="text/css">
	.st0{stroke:#000000;stroke-width:2;stroke-miterlimit:10;}
	.st1{stroke:#000000;stroke-miterlimit:10;}
	.st2{display:none;}
	.st3{display:inline;stroke:#000000;stroke-miterlimit:10;}
	.st4{display:inline;}
	.st5{fill:none;stroke:#000000;stroke-width:6;stroke-miterlimit:10;}
	.st6{fill:none;stroke:#000000;stroke-width:5;stroke-miterlimit:10;}
</style>
<symbol  id="hd1" viewBox="-17.63 -25.86 35.26 51.73">
	<g id="head01_2_">
		<g>
			<g>
				<path class="st0" d="M-16.54-6.4c-0.97,10.96,5.66,20.52,14.78,21.33S15.57,7.48,16.54-3.48S10.87-24,1.75-24.81
					S-15.57-17.36-16.54-6.4z M-12.96-6.09c0.8-9.01,7.26-15.82,14.4-15.19C8.59-20.65,13.76-12.8,12.96-3.8S5.7,12.03-1.44,11.4
					C-8.59,10.77-13.76,2.92-12.96-6.09z"/>
			</g>
			<g>
				<ellipse transform="matrix(0.9961 -0.088 0.088 0.9961 -1.6714 0.4999)" cx="4.84" cy="19.21" rx="6.28" ry="6.21"/>
				<path d="M-1.87,18.62c-0.32,3.65,2.42,6.89,6.12,7.22s6.97-2.38,7.29-6.03s-2.42-6.89-6.12-7.22S-1.55,14.97-1.87,18.62z
					 M-0.97,18.7c0.28-3.17,3.11-5.51,6.32-5.23s5.58,3.09,5.3,6.25c-0.28,3.17-3.11,5.51-6.32,5.23
					C1.13,24.67-1.25,21.87-0.97,18.7z"/>
			</g>
			<g>
				<path d="M4.57-1.44c-6.26,3.9-12.96,5.58-18.99,5.22c3.18,6.53,8.7,10.66,14.56,10.09C8.5,13.05,14.35,2.94,13.21-8.71
					c0-0.03-0.01-0.05-0.01-0.08C10.78-6.02,7.89-3.51,4.57-1.44z"/>
				<path d="M12.52-9.37c-2.44,2.79-5.27,5.21-8.43,7.17l0.48,0.75L4.09-2.19c-5.85,3.64-12.4,5.45-18.46,5.09l-1.53-0.09l0.66,1.36
					c3.47,7.12,9.4,11.18,15.45,10.59C9.06,13.89,15.29,3.32,14.09-8.88l-0.21-2.06L12.52-9.37z M-12.92,4.71
					c5.98,0.01,12.3-1.88,17.97-5.41c2.7-1.68,5.19-3.68,7.4-5.96c0.3,10.3-5,18.91-12.39,19.64C-4.86,13.47-9.73,10.33-12.92,4.71z
					"/>
			</g>
		</g>
	</g>
</symbol>
<symbol  id="hd2" viewBox="-17.98 -25.5 35.96 50.99">
	<path class="st1" d="M-1,3c6.57,0,12.54-3.07,17-8.07c0,0.03,0,0.05,0,0.07C16,6.32,8.61,15.5-0.5,15.5
		c-8.83,0-16.02-8.63-16.46-19.47C-12.63,0.38-7.07,3-1,3z"/>
	<circle class="st1" cx="-0.5" cy="18" r="7"/>
	<g>
		<path class="st0" d="M-16.88-5.94C-17.87,5.08-11.1,14.7-1.79,15.5C7.52,16.31,15.9,8.01,16.88-3
			c0.99-11.01-5.78-20.63-15.09-21.44S-15.9-16.95-16.88-5.94z M-13.23-5.62c0.81-9.06,7.41-15.91,14.71-15.27
			s12.57,8.52,11.76,17.57S5.82,12.59-1.47,11.95S-14.05,3.44-13.23-5.62z"/>
	</g>
</symbol>
<g id="桌子式_xFF08_变形_xFF09_" class="st2">
	<rect x="6.56" y="75.87" class="st3" width="158" height="6"/>
	<g class="st4">
		<path class="st0" d="M182.93,53.33c9.08,6.21,12.26,17.41,7.09,24.96c-5.17,7.56-16.76,8.65-25.84,2.44
			c-9.08-6.21-12.26-17.41-7.09-24.96S173.85,47.12,182.93,53.33z M180.9,56.29c-7.46-5.11-16.83-4.44-20.88,1.48
			s-1.27,14.89,6.19,20s16.83,4.44,20.88-1.48S188.36,61.39,180.9,56.29z"/>
	</g>
	<g class="st4">
		<ellipse transform="matrix(0.5646 -0.8254 0.8254 0.5646 11.283 193.595)" cx="189.14" cy="86.1" rx="6.28" ry="6.21"/>
		<path d="M192.94,80.55c3.03,2.07,3.78,6.25,1.69,9.31s-6.26,3.87-9.29,1.8c-3.03-2.07-3.78-6.25-1.69-9.31
			S189.91,78.48,192.94,80.55z M192.43,81.29c-2.62-1.79-6.23-1.09-8.05,1.56c-1.82,2.65-1.16,6.27,1.46,8.07s6.23,1.09,8.05-1.56
			S195.06,83.08,192.43,81.29z"/>
	</g>
	<g class="st4">
		<path d="M173.35,72.78c6.99-2.36,12.54-6.46,16.09-11.35c3.02,6.6,2.71,13.5-1.45,17.65c-5.94,5.94-17.47,4.04-25.74-4.24
			c-0.02-0.02-0.04-0.04-0.06-0.06C165.87,74.67,169.65,74.03,173.35,72.78z"/>
		<path d="M162.18,73.89c3.71-0.11,7.37-0.77,10.89-1.96l0.28,0.84l-0.28-0.84c6.53-2.21,12.08-6.12,15.65-11.03l0.9-1.24l0.63,1.38
			c3.3,7.21,2.67,14.36-1.63,18.66c-6.28,6.28-18.4,4.38-27.06-4.29l-1.46-1.46L162.18,73.89z M189.21,63.18
			c-3.78,4.63-9.26,8.31-15.58,10.44c-3.02,1.02-6.14,1.67-9.3,1.93c7.76,6.77,17.79,8.15,23.04,2.9
			C190.86,74.96,191.53,69.2,189.21,63.18z"/>
	</g>
	<rect x="151.58" y="81.05" class="st3" width="6" height="56"/>
	<rect x="68.97" y="81.05" class="st3" width="6" height="56"/>
	<rect x="62.31" y="132.22" class="st3" width="12" height="5"/>
	<rect x="145.59" y="132.22" class="st3" width="12" height="5"/>
	
		<rect x="1.5" y="71.19" transform="matrix(-1.836970e-16 1 -1 -1.836970e-16 82.6854 64.6854)" class="st3" width="15" height="5"/>
</g>
<g id="全船式" class="st2">
	
		<use xlink:href="#hd1"  width="35.26" height="51.73" x="-17.63" y="-25.86" transform="matrix(0.9033 0.4114 0.4086 -0.8972 152.5 59.5)" style="display:inline;overflow:visible;"/>
	
		<rect x="121.05" y="77.53" transform="matrix(0.9138 0.4063 -0.4063 0.9138 60.3526 -39.8577)" class="st4" width="6" height="89.38"/>
	
		<rect x="64.29" y="42.68" transform="matrix(0.8143 -0.5804 0.5804 0.8143 -50.6138 59.2413)" class="st4" width="6" height="132.09"/>
	<rect x="46" y="94" class="st4" width="90" height="5"/>
</g>
<g id="桌子式" class="st2">
	
		<use xlink:href="#hd1"  width="35.26" height="51.73" x="-17.63" y="-25.86" transform="matrix(-0.765 0.6324 0.6405 0.7748 168.5658 84.9983)" style="display:inline;overflow:visible;"/>
	<rect x="39" y="85" class="st4" width="112" height="6"/>
	<rect x="38.5" y="85" class="st4" width="6" height="58"/>
	<rect x="137.5" y="85" class="st4" width="6" height="58"/>
	<rect x="29" y="138" class="st4" width="15" height="5"/>
	<rect x="131" y="138" class="st4" width="12" height="5"/>
</g>
<g id="风吹树式">
	
		<use xlink:href="#hd2"  width="35.96" height="50.99" x="-17.98" y="-25.5" transform="matrix(0.8106 -0.5876 -0.5869 -0.8098 99 52.5)" style="overflow:visible;"/>
	<path class="st5" d="M137,190c0-65.78-11.18-119-25-119"/>
	<path class="st6" d="M56,12c0,40.35,29.07,73,65,73"/>
	<path class="st6" d="M125,85c5.89-33.68-25.47-67.26-70.11-75.07"/>
</g>
</svg>
