<svg t="1605602925268" class="icon" viewBox="0 0 1024 1024" version="1.1" xmlns="http://www.w3.org/2000/svg" p-id="7662" width="128" height="128"><path d="M896 891.52L757.76 512v-3.2l-8.32-43.52a23.04 23.04 0 0 0-4.48-9.6l-34.56-32.64-105.6-128a38.4 38.4 0 0 0-54.4 0 37.76 37.76 0 0 0-6.4 8.96l-64 176-10.24-7.68-93.44-74.88L384 198.4a30.72 30.72 0 0 0 16-6.4l39.04-30.08 16-11.52a4.48 4.48 0 0 0 0-3.84 5.76 5.76 0 0 0 0-4.48H448V128a7.68 7.68 0 0 0 0-5.12l-9.6-9.6h-24.96L448 76.16A7.04 7.04 0 0 0 448 64a7.04 7.04 0 0 0-10.24 0l-10.88 10.88a7.04 7.04 0 0 0 0-5.12 7.04 7.04 0 0 0-12.8 0L384 113.92l-24.96 64-51.2 209.92a33.92 33.92 0 0 0 0 7.68 34.56 34.56 0 0 0 12.16 24.32l102.4 104.32a128 128 0 0 0-64 110.72v33.92a384 384 0 0 0 40.32 172.8l-222.08 23.68A47.36 47.36 0 0 0 176 960H576c28.8 0 51.2-7.68 53.76-17.92h227.84a37.12 37.12 0 0 0 37.12-37.12v-3.84a36.48 36.48 0 0 0 0-10.24z m-74.24-198.4h-54.4a458.88 458.88 0 0 1 53.76 0z m-275.2 71.04a88.32 88.32 0 0 1-10.88-168.96 54.4 54.4 0 0 0 34.56-50.56 36.48 36.48 0 0 0 0-3.84 72.96 72.96 0 0 0 97.92 35.2 23.04 23.04 0 1 0 29.44-26.24 71.04 71.04 0 0 0 10.88-44.8 73.6 73.6 0 0 0 0-8.32 71.04 71.04 0 0 0-6.4-16.64l14.08 23.04a48 48 0 0 0 0 20.48l19.84 52.48a21.12 21.12 0 0 1 0 16 32.64 32.64 0 0 0 13.44 42.24l39.04 221.44-117.76-16a128 128 0 0 1-78.08-44.8 81.28 81.28 0 0 0-44.8-29.44z m-64-119.68A118.4 118.4 0 0 1 435.2 550.4a121.6 121.6 0 0 1 0-12.16l34.56 37.76a53.76 53.76 0 0 0 47.36 26.24h3.84a90.88 90.88 0 0 0-39.68 42.88z m83.2-128v3.2a55.04 55.04 0 0 0-31.36-24.96 81.28 81.28 0 0 0 38.4-17.28 71.68 71.68 0 0 0-7.68 38.4z m119.04-71.04V448l10.88 17.28a72.96 72.96 0 0 0-113.92-5.12 77.44 77.44 0 0 1-33.28 23.68l35.2-140.8 99.2 90.88a23.04 23.04 0 0 0 0 8.32z m-99.84 20.48a69.12 69.12 0 0 1 47.36-24.32h5.76a69.12 69.12 0 0 1 44.8 16 67.84 67.84 0 0 1 21.12 35.2 108.8 108.8 0 0 1-128 48.64 69.12 69.12 0 0 1 7.68-78.08z m99.2 100.48l5.76-5.12 8.32 6.4-8.32-6.4 3.84-5.12a19.84 19.84 0 1 1-24.32 21.76l9.6-5.76 3.2 8.96z m7.04-11.52A69.76 69.76 0 0 1 576 545.92a112.64 112.64 0 0 0 128-48v3.84a68.48 68.48 0 0 1-16 50.56z m128 133.76h-53.12l-9.6-55.68h-3.2a28.8 28.8 0 0 1-12.16-37.76 24.32 24.32 0 0 0 0-16.64l-18.56-54.4a47.36 47.36 0 0 1 0-14.08l3.84-5.76a17.92 17.92 0 0 0 0-10.88v-5.12h3.2l8.32 11.52 6.4 5.76a34.56 34.56 0 0 0 8.32 10.88l5.76 4.48z m-100.48-210.56l-8.96-14.72h3.2v3.84l7.04 10.24z m35.2 23.04v7.68l-4.48-3.84-5.12-5.76h7.04zM545.92 302.08a35.2 35.2 0 0 1 30.08-19.2 35.2 35.2 0 0 1 24.32 9.6L704 422.4l33.92 32a19.84 19.84 0 0 1 4.48 8.96l4.48 24.96-17.92-34.56 20.48 39.68h-5.76a32.64 32.64 0 0 1-9.6-7.04l-17.92-24.96v-3.84a6.4 6.4 0 0 0-7.04 0 5.12 5.12 0 0 0 0 3.84l14.08 22.4a15.36 15.36 0 0 1 0 8.96l-35.2-44.8v-5.76a19.84 19.84 0 0 1 0-8.32L582.4 338.56 544 486.4a78.08 78.08 0 0 1-64-6.4zM320 417.92a31.36 31.36 0 0 1-10.88-21.12 29.44 29.44 0 0 1 0-7.68l49.28-207.36 24.96-64 32.64-46.72a3.84 3.84 0 0 1 3.84 5.76l-10.88 16-18.56 18.56 42.24-41.6a3.84 3.84 0 0 1 5.12 0 3.84 3.84 0 0 1 0 5.12l-35.84 35.84h27.52l18.56 13.44A4.48 4.48 0 0 1 448 128v14.72h-4.48a17.28 17.28 0 1 0-6.4 8.32L448 145.92a6.4 6.4 0 0 1 5.76 0l-14.72 10.88-40.96 35.2A28.16 28.16 0 0 1 384 192l-10.88 206.08 92.8 74.24a81.28 81.28 0 0 0 49.92 21.12 51.2 51.2 0 0 1 0 102.4 49.92 49.92 0 0 1-44.8-24.32z m115.2-271.36h-3.84a14.08 14.08 0 0 1-16.64 0 14.08 14.08 0 1 1 23.68-9.6 13.44 13.44 0 0 1 0 5.12zM359.68 652.8v-15.36a128 128 0 0 1 64-109.44l8.32 8.32a122.88 122.88 0 0 0 47.36 113.28 91.52 91.52 0 0 0 0 49.92 93.44 93.44 0 0 1-23.68 3.84v-14.72H448V704a118.4 118.4 0 0 1-89.6-38.4c0.64-4.48 0.64-8.96 1.28-12.8z m0 17.28A122.88 122.88 0 0 0 448 704a104.32 104.32 0 0 0 32-4.48V704a120.96 120.96 0 0 1-119.04-30.08z m0 8.96a124.16 124.16 0 0 0 120.96 28.8 91.52 91.52 0 0 0 46.72 53.12 172.16 172.16 0 0 1-128 80.64v-4.48a384 384 0 0 1-37.76-157.44z m34.56 277.76H177.28a43.52 43.52 0 0 1 0-87.68l222.08-23.68a170.88 170.88 0 0 0 64 64l-8.32 5.76-7.04 3.84-231.68-26.88V896l175.36 19.84v29.44c0 10.24 1.92 7.04 1.92 11.52z m6.4 0v-11.52-28.8a240.64 240.64 0 0 1 0 26.88c-0.64 4.48-0.64 8.96-0.64 13.44z m175.36 0H403.2v-13.44a243.2 243.2 0 0 0 0-26.24l49.28 5.76 5.76-6.4a29.44 29.44 0 0 1 39.68 0 24.32 24.32 0 0 0 16 5.76h64c27.52 0 44.8 8.96 44.8 16s-17.28 18.56-46.72 18.56z m315.52-51.2a33.92 33.92 0 0 1-33.92 33.92H629.12c0-8.96-19.2-16-43.52-17.92H516.48a21.12 21.12 0 0 1-15.36-6.4 32.64 32.64 0 0 0-32-7.68 165.12 165.12 0 0 1-58.88-48l-8.96-12.8a176 176 0 0 0 128-82.56l10.24 3.84-12.16 18.56 12.8-19.2h5.76a77.44 77.44 0 0 1 44.16 28.8 132.48 132.48 0 0 0 79.36 44.8h4.48l161.28 21.76v-3.2l-46.08-6.4-21.12-156.16a458.88 458.88 0 0 1 55.04 0l69.76 192a33.28 33.28 0 0 1 0 10.24z" fill="#FFFFFF" p-id="7663"></path><path d="M755.2 512l-5.12-3.84-5.76-6.4a19.84 19.84 0 0 0 7.04 0z" fill="#FFDFCB" p-id="7664"></path><path d="M818.56 692.48h-54.4a481.92 481.92 0 0 1 53.76 0zM399.36 942.72v-27.52a237.44 237.44 0 0 1 0 26.24zM477.44 704a120.32 120.32 0 0 1-119.68-30.72v-3.84a122.88 122.88 0 0 0 86.4 34.56 103.68 103.68 0 0 0 32 0z" fill="#9E7C9D" p-id="7665"></path><path d="M624.64 939.52c0 7.68-20.48 16-50.56 16H402.56v-13.44a240.64 240.64 0 0 0 0-26.24l49.28 5.76 5.76-6.4a29.44 29.44 0 0 1 39.68 0 24.32 24.32 0 0 0 16 5.76h64c30.08 3.84 47.36 12.16 47.36 18.56z" fill="#FFDFCB" p-id="7666"></path><path d="M814.08 686.08H761.6l-9.6-56.32h-3.2a29.44 29.44 0 0 1-12.16-37.76 24.96 24.96 0 0 0 0-16.64l-17.92-54.4V512a48 48 0 0 1 0-14.08l3.2-5.76a18.56 18.56 0 0 0 0-10.88v-5.12h3.2l8.32 11.52 6.4 5.76a35.2 35.2 0 0 0 8.32 10.88l5.76 4.48z" fill="#F6D4BE" p-id="7667"></path><path d="M525.44 761.6a173.44 173.44 0 0 1-128 81.28v-4.48a384 384 0 0 1-37.76-158.72 128 128 0 0 0 121.6 29.44 92.16 92.16 0 0 0 46.72 53.12zM519.68 599.04a90.88 90.88 0 0 0-39.68 46.08 119.04 119.04 0 0 1-46.72-94.72 121.6 121.6 0 0 1 0-12.16l34.56 37.76a53.76 53.76 0 0 0 48 26.24zM562.56 512v3.2a54.4 54.4 0 0 0-30.72-24.96 80 80 0 0 0 37.76-17.28 71.68 71.68 0 0 0-7.68 38.4zM704 490.88a109.44 109.44 0 0 1-128 48 67.84 67.84 0 0 1 0-64 69.12 69.12 0 0 1 55.04-35.84h5.76a69.76 69.76 0 0 1 44.8 16 67.2 67.2 0 0 1 23.04 37.12z" fill="#FFDFCB" p-id="7668"></path><path d="M730.24 456.96l20.48 39.68h-5.76a32.64 32.64 0 0 1-9.6-7.04l-17.92-24.32v-3.84a7.04 7.04 0 0 0-7.68 0 5.12 5.12 0 0 0 0 3.84l14.08 22.4a15.36 15.36 0 0 1 0 8.32L686.72 448v-4.48a19.2 19.2 0 0 1 0-8.32L581.76 337.92l-38.4 147.2a78.08 78.08 0 0 1-64-6.4l64-176.64a35.2 35.2 0 0 1 55.68-9.6l104.96 128 33.92 31.36a19.84 19.84 0 0 1 4.48 8.96l4.48 24.96-17.92-34.56z" fill="#F6D4BE" p-id="7669"></path><path d="M565.76 544a51.2 51.2 0 0 1-51.2 51.2 49.92 49.92 0 0 1-44.16-24.32L320 416.64a31.36 31.36 0 0 1-10.88-21.12 30.08 30.08 0 0 1 0-7.68l49.28-207.36L384 115.2l32-47.36a3.84 3.84 0 0 1 3.84 5.76l-10.88 16-18.56 18.56 46.72-44.16a3.84 3.84 0 0 1 5.12 5.12l-35.84 35.84h27.52l8.96 8.96A4.48 4.48 0 0 1 448 128v12.8h-4.48a17.28 17.28 0 1 0-6.4 8.32l12.8-7.68a5.76 5.76 0 0 1 5.76 0l-14.72 10.88-45.44 39.68A28.16 28.16 0 0 1 384 192l-13.44 204.8 92.8 74.24a80.64 80.64 0 0 0 48.64 21.12 51.2 51.2 0 0 1 51.2 51.2z" fill="#FFDFCB" p-id="7670"></path><path d="M890.24 901.76v3.84a33.92 33.92 0 0 1-33.92 33.92H627.84c0-8.96-19.2-16-43.52-17.92H512a21.12 21.12 0 0 1-15.36-6.4 32.64 32.64 0 0 0-32-7.68 165.12 165.12 0 0 1-58.88-48l-8.96-12.8a176 176 0 0 0 128-82.56l12.8 3.84-12.16 18.56 12.8-19.2h5.76a78.08 78.08 0 0 1 44.16 28.8 133.12 133.12 0 0 0 79.36 44.8h4.48l161.92 21.76v-3.2l-46.08-6.4-28.16-158.72a460.16 460.16 0 0 1 55.04 0l69.76 195.2a33.28 33.28 0 0 1 0 10.24z" fill="#2D2D2D" p-id="7671"></path><path d="M462.72 906.88l-8.32 5.76-6.4 5.76-231.68-26.88V896l174.72 20.48v40.96H176a43.52 43.52 0 0 1 0-87.68l221.44-23.68a170.88 170.88 0 0 0 65.28 60.8z" fill="#292627" p-id="7672"></path><path d="M430.72 549.76a123.52 123.52 0 0 1 0-15.36l-8.32-8.32a128 128 0 0 0-64 109.44v28.8a119.68 119.68 0 0 0 86.4 39.68H448v-14.72 14.72a94.72 94.72 0 0 0 23.68-3.84 92.16 92.16 0 0 1 0-49.92 122.24 122.24 0 0 1-40.96-100.48z m21.12 133.76a5.12 5.12 0 0 1-3.84-3.2 5.12 5.12 0 0 1 0-5.76 5.12 5.12 0 0 1 5.76 0 5.12 5.12 0 0 1 0 10.24z" fill="#FED1E8" p-id="7673"></path><path d="M711.04 568.32a19.84 19.84 0 0 1-40.32 0l9.6-6.4 3.2 8.96-3.84-9.6 5.76-5.12 8.32 6.4-8.32-6.4 3.84-5.12a20.48 20.48 0 0 1 21.76 17.28z" fill="#48312B" p-id="7674"></path><path d="M688.64 551.04A68.48 68.48 0 0 1 576 544.64a110.72 110.72 0 0 0 128-48v3.84a69.76 69.76 0 0 1-16 51.2z" fill="#48312B" p-id="7675"></path><path d="M448 672.64a5.12 5.12 0 1 0 5.12 5.12 5.12 5.12 0 0 0-5.12-5.12z m0 8.32v-5.76 5.76z" fill="#4F46A4" p-id="7676"></path><path d="M451.2 677.76m-3.2 0a3.2 3.2 0 1 0 6.4 0 3.2 3.2 0 1 0-6.4 0Z" fill="#9E7C9D" p-id="7677"></path></svg>