<?xml version="1.0" encoding="utf-8"?>
<!-- Generator: Adobe Illustrator 24.3.0, SVG Export Plug-In . SVG Version: 6.00 Build 0)  -->
<svg version="1.1" id="图层_1" xmlns="http://www.w3.org/2000/svg" xmlns:xlink="http://www.w3.org/1999/xlink" x="0px" y="0px"
	 viewBox="0 0 200 200" style="enable-background:new 0 0 200 200;" xml:space="preserve">
<style type="text/css">
	.st0{fill: #616162;}
	.st1{fill:none;stroke:#616162;stroke-width:9;stroke-miterlimit:10;}
</style>
<rect x="20.62" y="71.24" class="st0" width="129.26" height="11.12"/>
<rect x="-13.7" y="105.56" transform="matrix(3.356708e-14 1 -1 3.356708e-14 137.3002 84.938)" class="st0" width="79.76" height="11.12"/>
<rect x="6.72" y="139.88" transform="matrix(-1 -1.224647e-16 1.224647e-16 -1 31.4571 290.8789)" class="st0" width="18.03" height="11.12"/>
<rect x="105.35" y="105.56" transform="matrix(-1.836970e-16 1 -1 -1.836970e-16 256.3504 -34.1122)" class="st0" width="79.76" height="11.12"/>
<rect x="125.77" y="139.88" transform="matrix(-1 -1.224647e-16 1.224647e-16 -1 269.5574 290.8789)" class="st0" width="18.03" height="11.12"/>
<ellipse transform="matrix(0.6709 -0.7415 0.7415 0.6709 0.6375 151.849)" class="st1" cx="171.4" cy="75.21" rx="17.09" ry="22.15"/>
<path class="st0" d="M182.18,96.71c1.85,2.48,1.76,5.9,1.52,7.85c-0.11,0.88-0.92,1.48-1.8,1.34c-1.94-0.32-5.24-1.22-7.09-3.7
	c-2.72-3.65-3.28-7.85-1.25-9.36S179.45,93.05,182.18,96.71z"/>
</svg>
